<svg xmlns="http://www.w3.org/2000/svg" id="Megaphone" viewBox="0 0 295.78 314.35">
  <defs>
    <style>
      .cls-1 {
      fill: #407bff;
      }

      .cls-1, .cls-2, .cls-3, .cls-4, .cls-5, .cls-6, .cls-7, .cls-8, .cls-9, .cls-10, .cls-11 {
      stroke-width: 0px;
      }

      .cls-12 {
      opacity: .2;
      }

      .cls-3, .cls-13, .cls-11 {
      opacity: .3;
      }

      .cls-4 {
      fill: #e0e0e0;
      }

      .cls-5 {
      fill: #f5f5f5;
      }

      .cls-6 {
      fill: #f0f0f0;
      }

      .cls-7, .cls-9, .cls-10, .cls-11 {
      fill: #fff;
      }

      .cls-8 {
      fill: #263238;
      }

      .cls-9 {
      opacity: .1;
      }

      .cls-10 {
      opacity: .7;
      }
    </style>
  </defs>
  <path class="cls-4" d="M33.37,48.94c.65.62,20.46,30.52,20.46,30.52,0,0,6.78-16.17,8.04-15.41,1.25.76,15.18,25,15.16,24.5-.01-.49-11.48-40.28-14.29-38.78-2.81,1.5-8.49,12.05-8.49,12.05l-12.31-24.09-8.56,11.21Z"/>
  <path class="cls-6" d="M84.14,31.34c.15.57.75,24.03.75,24.03,0,0,9.38-6.62,9.81-5.76.43.86-.26,19.14-.1,18.86.16-.28,7.62-26.34,5.54-26.48-2.08-.15-8.9,3.74-8.9,3.74l1.53-17.64-8.64,3.25Z"/>
  <path class="cls-4" d="M193.9,270.13c-.19-.71-1.23-30.17-1.23-30.17,0,0-11.7,8.42-12.25,7.35-.55-1.07.1-24.04-.1-23.69-.2.35-9.26,33.16-6.64,33.32,2.62.16,11.13-4.8,11.13-4.8l-1.72,22.17,10.82-4.18Z"/>
  <path class="cls-6" d="M22.04,106.52c.58.04,23.02,6.96,23.02,6.96,0,0-3.27-11-2.32-11.14.95-.14,18.05,6.36,17.84,6.11-.21-.24-22.52-15.63-23.33-13.71-.8,1.93.7,9.62.7,9.62l-16.23-7.09.32,9.23Z"/>
  <path class="cls-6" d="M234.77,228.87c-.39-.27-13.33-14.31-13.33-14.31,0,0-2.2,9.07-2.92,8.78-.72-.29-10.09-11.86-10.04-11.6s9.44,20.2,10.79,19.18c1.35-1.02,3.45-7.05,3.45-7.05l8.51,11.62,3.55-6.62Z"/>
  <path class="cls-6" d="M139.19,258.83c.09-.47,7.61-18.02,7.61-18.02,0,0-9.18,1.7-9.21.92s6.69-14.06,6.48-13.91c-.22.15-14.58,16.87-13.09,17.69,1.49.82,7.84.26,7.84.26l-7.13,12.52,7.49.54Z"/>
  <path class="cls-4" d="M214.1,35c-.27.4-14.32,13.52-14.32,13.52,0,0,9.15,2.16,8.86,2.89-.29.73-11.87,10.23-11.61,10.18.26-.05,20.28-9.63,19.24-10.99-1.04-1.36-7.12-3.42-7.12-3.42l11.65-8.64-6.69-3.53Z"/>

  <path class="cls-1" d="M261.61,159.13c-.52-.23-18.86-13.86-18.86-13.86,0,0-.57,11.16-1.48,10.98-.92-.18-14.5-11.7-14.39-11.41.11.29,15.59,21.66,16.96,20.15,1.36-1.51,2.48-9.06,2.48-9.06l12.59,11.77,2.71-8.57Z"/>
  <path class="cls-1" d="M268.03,104.03c-.68.27-29.81,4.84-29.81,4.84,0,0,9.76,10.61,8.76,11.29-1,.68-23.88,2.78-23.51,2.94.37.16,34.03,5.22,33.88,2.6-.16-2.62-6.1-10.47-6.1-10.47l22.22-.95-5.45-10.24Z"/>
  <path class="cls-1" d="M239.93,69.4c-.3.41-15.77,13.65-15.77,13.65,0,0,9.58,2.7,9.24,3.46-.34.76-13.03,10.29-12.75,10.25s21.89-9.27,20.85-10.75c-1.04-1.48-7.38-3.95-7.38-3.95l12.71-8.61-6.91-4.04Z"/>
  <g>
    <path class="cls-1" d="M11.12,164.26s-10.13,3.02-11.03,5.94c-.97,3.17,5.55,25.17,9.94,25.53,4.4.36,11.08-3.77,11.08-3.77l-10-27.71Z"/>
    <path class="cls-1" d="M42.18,200.29s13.25,58.11,14.43,61.86c1.18,3.76,32.47,1.64,31.88-1.17-.59-2.82-7.97-7.51-7.68-11.27s3.54-9.86,2.95-12.91c-.59-3.05-9.15-5.87-8.27-10.8.89-4.93,5.36-8.63,5.65-12.15.3-3.52-2.4-13.91-2.4-13.91l-36.58.35Z"/>
    <path class="cls-3" d="M42.18,200.29s13.25,58.11,14.43,61.86c1.18,3.76,32.47,1.64,31.88-1.17-.59-2.82-7.97-7.51-7.68-11.27s3.54-9.86,2.95-12.91c-.59-3.05-9.15-5.87-8.27-10.8.89-4.93,5.36-8.63,5.65-12.15.3-3.52-2.4-13.91-2.4-13.91l-36.58.35Z"/>
    <path class="cls-1" d="M17.46,190.4s-21.94-36.21,15.88-51.06l18.49,60.85s-25.59,5.23-34.37-9.79Z"/>
    <g>
      <path class="cls-1" d="M34.65,138.53s31.04-18.35,42.47-25.62c21.34-13.57,33.69-29.83,33.69-29.83l43.17,122.14s-41.06-3.16-63.18-4.56c-22.11-1.4-41.77-.35-41.77-.35,0,0-15.79-14.74-17.9-38.26-2.11-23.52,3.51-23.52,3.51-23.52Z"/>
      <path class="cls-10" d="M34.65,138.53s31.04-18.35,42.47-25.62c21.34-13.57,33.69-29.83,33.69-29.83l43.17,122.14s-41.06-3.16-63.18-4.56c-22.11-1.4-41.77-.35-41.77-.35,0,0-15.79-14.74-17.9-38.26-2.11-23.52,3.51-23.52,3.51-23.52Z"/>
    </g>
    <ellipse class="cls-1" cx="161.99" cy="131.54" rx="54.18" ry="85.11" transform="translate(-25.88 40.71) rotate(-13.28)"/>
    <ellipse class="cls-3" cx="164.63" cy="131.63" rx="40.48" ry="70.58" transform="translate(-25.83 41.32) rotate(-13.28)"/>
    <g class="cls-13">
      <path class="cls-2" d="M125.85,88.54c7.18-1.93,18.63,6.31,25.6,14.28,21.75,24.85,24.64,64.54,7.09,92.52-27.84-17.55-44.3-69.88-32.69-106.79"/>
    </g>
    <path class="cls-1" d="M33.2,200.3s10.91,60.18,11.88,64.07,26.74,1.7,26.25-1.22-6.56-7.78-6.32-11.67c.24-3.89,2.92-10.21,2.43-13.37-.49-3.16-7.54-6.08-6.81-11.18.73-5.1,4.41-8.94,4.65-12.59.24-3.65-1.98-14.41-1.98-14.41l-30.12.36Z"/>
    <g>
      <path class="cls-1" d="M125.21,140.91c2.24,9.51,5.49,18.3,9.43,26.06,2.13-.96,41.09-18.48,42.25-19.64,1.19-1.19-9.24-36.38-9.24-36.38l-45.56,7.49c.29,7.22,1.31,14.78,3.13,22.47Z"/>
      <path class="cls-10" d="M125.21,140.91c2.24,9.51,5.49,18.3,9.43,26.06,2.13-.96,41.09-18.48,42.25-19.64,1.19-1.19-9.24-36.38-9.24-36.38l-45.56,7.49c.29,7.22,1.31,14.78,3.13,22.47Z"/>
      <ellipse class="cls-1" cx="172.23" cy="129.03" rx="10.6" ry="18.67" transform="translate(-25.03 43) rotate(-13.28)"/>
    </g>
    <g class="cls-13">
      <path class="cls-2" d="M66.99,217.46c3.58-.4,7.15-.81,10.73-1.21.56-.06,1.05-.44,1.05-1.05,0-.52-.48-1.11-1.05-1.05-3.58.4-7.15.81-10.73,1.21-.56.06-1.05.44-1.05,1.05,0,.52.48,1.11,1.05,1.05h0Z"/>
    </g>
    <g class="cls-13">
      <path class="cls-2" d="M69.2,237.3c4.35-.44,8.71-.77,13.07-1,1.34-.07,1.35-2.16,0-2.09-4.37.22-8.72.55-13.07,1-.56.06-1.05.44-1.05,1.05,0,.52.48,1.1,1.05,1.05h0Z"/>
    </g>
    <path class="cls-8" d="M66.99,200.05c-.5.1,1.47,12.2,3.62,12.33,2.15.13,14.01-.39,14.07-1.45.14-2.45-2.82-10.73-2.82-10.73,0,0-11.29-.87-14.87-.16Z"/>
    <g class="cls-13">
      <path class="cls-2" d="M2.12,178.29c1.21-.3,2.41-.59,3.62-.89.53-.13.9-.76.73-1.29s-.72-.87-1.29-.73c-1.21.3-2.41.59-3.62.89-.53.13-.9.76-.73,1.29s.72.87,1.29.73h0Z"/>
    </g>
    <g class="cls-13">
      <path class="cls-2" d="M3.2,182.42c1.21-.3,2.41-.59,3.62-.89.53-.13.9-.76.73-1.29s-.72-.87-1.29-.73c-1.21.3-2.41.59-3.62.89-.53.13-.9.76-.73,1.29s.72.87,1.29.73h0Z"/>
    </g>
    <g class="cls-13">
      <path class="cls-2" d="M4.81,186.54c1.21-.3,2.41-.59,3.62-.89.53-.13.9-.76.73-1.29s-.72-.87-1.29-.73c-1.21.3-2.41.59-3.62.89-.53.13-.9.76-.73,1.29s.72.87,1.29.73h0Z"/>
    </g>
    <g class="cls-13">
      <path class="cls-2" d="M6.62,190.93c1.21-.3,2.41-.59,3.62-.89.53-.13.9-.76.73-1.29s-.72-.87-1.29-.73c-1.21.3-2.41.59-3.62.89-.53.13-.9.76-.73,1.29s.72.87,1.29.73h0Z"/>
    </g>
    <path class="cls-11" d="M35.55,141.81s-3.09,20.11,3.37,28.39c6.47,8.28,68.93-17.47,68.93-17.47,0,0-10.87-26.66-5.24-47.06,1.75-6.33,2.06-8.64.96-8.3-2.47.75-11.48,13.1-31.11,23.53-13.32,7.08-36.92,20.91-36.92,20.91Z"/>
    <path class="cls-3" d="M33.2,200.29l1.1,6.09s48.42.31,48.99-1.83l-1.43-4.34c-8-.75-29.09-.26-48.66.08Z"/>
    <path class="cls-3" d="M146.01,161.84c-12.31-18.81-13.67-39.4-13.81-45.06l-10.12,1.66c.29,7.22,1.31,14.78,3.13,22.47,2.24,9.51,5.49,18.3,9.43,26.06.7-.31,5.37-2.42,11.37-5.14Z"/>
    <path class="cls-3" d="M11.12,164.26c1.92,10.15,4.54,19.81,8.17,28.73l-1.8.88c-.93.41-10.16-28.39-8.85-28.78.45-.13,2.48-.83,2.48-.83Z"/>
    <path class="cls-9" d="M155.59,66.93c-1.03-.22-10.35,18.61-9.57,21.32.78,2.71,12.99,17.66,15.97,17.66s28.77-1.17,28.77-4.4-12.9-29.89-35.17-34.58Z"/>
    <path class="cls-9" d="M178.71,156.77s-7.62,25.66-6.49,27.88c1.14,2.21,18.86.46,22.87-3.68,4.01-4.14,8.36-24.53,8.02-27.88-.33-3.34-24.41,3.68-24.41,3.68Z"/>
    <g class="cls-12">
      <path class="cls-7" d="M65.25,258.92c-.69-2.27-3.74-2.55-4.76-4.56-1.22-2.41,1.33-5.14,1.1-7.83-.15-1.72-1.46-3.16-3-3.94s-3.28-1.03-4.99-1.26c-2.71-.37-6.24-.6-8.55.85.05,4.12,1.36,9.2,2.57,13.13.51,1.65,1.17,3.36,2.5,4.46,1.21,1.01,2.83,1.38,4.39,1.61,2.71.4,5.46.47,8.18.21.98-.09,2.09-.3,2.52-1.28.19-.44.18-.94.04-1.4Z"/>
    </g>
  </g>
</svg>
