<svg id="Layer_1" data-name="Layer 1" xmlns="http://www.w3.org/2000/svg" viewBox="0 0 243.59 36.2"><title>masernet_logo_updated_color</title><path d="M52.72,13.4A5.1,5.1,0,0,0,47.84,17H37.93a3.88,3.88,0,0,0-7.14,0H20.56a2.87,2.87,0,1,0,0,3H30.79a3.88,3.88,0,0,0,7.14,0h9.91a5.1,5.1,0,1,0,4.88-6.61Z" transform="translate(-3.21 -0.4)" style="fill:#2070f0"/><path d="M8.31,10.61A5.13,5.13,0,0,0,13.19,7H23.1a3.87,3.87,0,0,0,7.14,0H40.47a2.86,2.86,0,0,0,4.87,0,2.78,2.78,0,0,0,.44-1.51A2.75,2.75,0,0,0,45.34,4a2.85,2.85,0,0,0-4.87,0H30.24A3.87,3.87,0,0,0,23.1,4H13.19a5.1,5.1,0,1,0-4.88,6.61Z" transform="translate(-3.21 -0.4)" style="fill:#f07020"/><path d="M42.91,28.63A2.84,2.84,0,0,0,40.47,30H30.24a3.87,3.87,0,0,0-7.14,0H13.19a5.11,5.11,0,1,0,0,3H23.1a3.87,3.87,0,0,0,7.14,0H40.47a2.85,2.85,0,0,0,4.87,0,2.75,2.75,0,0,0,.44-1.5A2.78,2.78,0,0,0,45.34,30,2.83,2.83,0,0,0,42.91,28.63Z" transform="translate(-3.21 -0.4)" style="fill:#f07020"/><path d="M89.62,27.82v-11a2.66,2.66,0,0,0-1.78-2.86,21.84,21.84,0,0,0-4-.19,3.07,3.07,0,0,0-2.31.93A3.27,3.27,0,0,0,81,16.87v11H76.82V16.87c0-1.54-.51-2.51-1.54-2.91a18.35,18.35,0,0,0-3.9-.24c-2.2,0-3.29,1-3.29,3l0,11.05H63.9v-12q0-5.91,6.16-5.92h3.85a7.24,7.24,0,0,1,3,.5,5.53,5.53,0,0,1,2.07,1.84A6,6,0,0,1,84,9.91h3.78a6.06,6.06,0,0,1,4.44,1.59,5.79,5.79,0,0,1,1.63,4.33v12Z" transform="translate(-3.21 -0.4)" style="fill:#2070f0"/><path d="M119.63,23.39a4,4,0,0,1-1.6,3.27,6.9,6.9,0,0,1-4.37,1.25h-8.09A8.68,8.68,0,0,1,101,26.83a3.7,3.7,0,0,1-1.87-3.3v-3.2A3.87,3.87,0,0,1,100.75,17a7.86,7.86,0,0,1,4.58-1.18h10.11a3.48,3.48,0,0,0-.6-2.16,3.54,3.54,0,0,0-2.65-.75h-13V9.77h13.6q6.86,0,6.86,4.6Zm-4.24-.6V19.3q0-.6-1-.6h-8.08c-2,0-3,.75-3,2.26v1.78a1.64,1.64,0,0,0,.89,1.5,4.23,4.23,0,0,0,2.17.52h6.06C114.4,24.76,115.39,24.1,115.39,22.79Z" transform="translate(-3.21 -0.4)" style="fill:#2070f0"/><path d="M142.82,12.92H131.63a5.44,5.44,0,0,0-2.26.36,1.47,1.47,0,0,0-1,1.33v.74c0,1.25,1.13,1.88,3.39,1.88h5.53a6.32,6.32,0,0,1,4,1.18,3.6,3.6,0,0,1,1.55,3v2.21a4,4,0,0,1-1.56,3.06,4.1,4.1,0,0,1-2,1,11.92,11.92,0,0,1-2.48.19H124.1v-3.1h11.53a3.09,3.09,0,0,0,2.38-.7,3.12,3.12,0,0,0,.43-1.92q0-1.86-2.76-1.86h-5.23a8.45,8.45,0,0,1-4.38-1,3.43,3.43,0,0,1-1.92-3V13.86a3.67,3.67,0,0,1,2.21-3.25,8.4,8.4,0,0,1,4.14-.79h12.32Z" transform="translate(-3.21 -0.4)" style="fill:#2070f0"/><path d="M168.35,17l-16.22,4.79v.6a2.22,2.22,0,0,0,1.09,2.07,6,6,0,0,0,2.57.39H168.3v3.1H155a9.72,9.72,0,0,1-5.08-1,4.2,4.2,0,0,1-2.07-3.9V14.41q0-4.59,6.76-4.59h7.44q6.3,0,6.3,4.88ZM164,15.21v-.27c0-1.38-1.12-2.07-3.37-2.07H156q-3.89,0-3.89,2.34v3.53Z" transform="translate(-3.21 -0.4)" style="fill:#2070f0"/><path d="M183.41,12.68a44.75,44.75,0,0,0-5.7.19A2.27,2.27,0,0,0,176,15.3V27.82h-4.38V14.46c0-3.25,2.28-4.88,6.86-4.88h4.9Z" transform="translate(-3.21 -0.4)" style="fill:#2070f0"/><path d="M202.93,27.86V16.39q0-2.78-3.56-2.77h-4.72c-2.4,0-3.61.92-3.61,2.77V27.86h-4.23V15.3q0-5.54,6.45-5.53h7.46c4.26,0,6.4,1.84,6.4,5.53V27.86Z" transform="translate(-3.21 -0.4)" style="fill:#f07020"/><path d="M232.72,17,216.5,21.75v.6a2.23,2.23,0,0,0,1.08,2.07,6.06,6.06,0,0,0,2.58.39h12.51v3.1H219.36a9.71,9.71,0,0,1-5.07-1,4.2,4.2,0,0,1-2.07-3.9V14.41q0-4.59,6.76-4.59h7.43q6.32,0,6.31,4.88Zm-4.33-1.75v-.27c0-1.38-1.13-2.07-3.37-2.07h-4.67q-3.9,0-3.9,2.34v3.53Z" transform="translate(-3.21 -0.4)" style="fill:#f07020"/><path d="M246.79,13.11h-5.36v14.8h-4.24V3.78h4.24v6.3h5.36Z" transform="translate(-3.21 -0.4)" style="fill:#f07020"/></svg>