<svg id="Layer_1" data-name="Layer 1" xmlns="http://www.w3.org/2000/svg" viewBox="0 0 2220 1667.27"><defs><style>.cls-1{fill:#ef7124;}.cls-2{fill:#2070F0;}</style></defs><title>masernet_svg</title><path class="cls-1" d="M133.72,131.79C59.06,171,23.64,230.4,23.64,316.48c0,65.1,15.3,103.42,60.28,150.32,86.14,90.89,253.68,69.85,318.71-40.24l24.94-43.07H804.66l22,29.68c32.51,43.07,97.62,69.85,152.16,61.28,35.42-4.75,53.63-15.3,87.14-48.81l42.08-42.15h190.49c190.49,0,191.41,0,220.1,23.95,38.32,32.58,106.26,35.42,149.4,6.73,24.87-16.3,49.73-65.11,49.73-98.62,0-60.28-56.46-113.91-119.65-113.91-34.43,0-91,24.87-91,40.24,0,3.83-91.88,7.65-204.73,7.65H1097.58l-15.3-23.94c-53.63-81.4-199.13-83.31-255.59-3.83l-19.13,27.77H611.33c-164.63,0-195.24-1.91-195.24-14.38,0-21-56.53-80.4-96.69-101.44-45.91-23-143.6-24-185.68-1.92"/><path class="cls-2" d="M1942.75,631.41c-64.11,16.22-128.29,67-143.59,115.83-5.74,18.2-14.31,19.12-200.05,19.12H1405.78l-21.11-28.69c-59.29-80.4-193.25-80.4-252.62,0l-21.11,28.69H915.71c-194.32,0-195.24,0-224-23.94-40.17-33.51-109.1-33.51-150.26,1a116.75,116.75,0,0,0,0,179.94c41.16,34.43,110.09,34.43,150.26,1,28.76-24,29.68-24,224-24h195.23l21.11,28.7c28.69,38.25,72.69,59.36,126.31,59.36s97.62-21.11,126.31-59.36l21.11-28.7h193.33c185.74,0,194.31,1,200.05,19.06,17.21,52.71,88,105.34,160.81,118.73,113.91,21,236.39-86.14,236.39-204.8,0-84.23-66.09-172.29-146.42-196.23-52.64-15.3-63.19-16.22-107.19-5.74"/><path class="cls-1" d="M152.85,1154c-81.33,31.59-129.21,104.35-129.21,196.23,0,87.13,36.34,147.42,112,185.74,43.07,22,137.85,20,183.76-2.9,40.16-21,96.69-80.41,96.69-101.45,0-12.47,30.61-14.38,195.24-14.38H807.56l19.13,27.7c56.46,79.48,202,77.57,255.59-3.75l15.3-24h204.87c112.85,0,204.73,3.83,204.73,7.65,0,15.3,56.53,40.24,91,40.24,46,0,87.14-24.94,105.34-63.19s18.21-62.27.92-102.44c-27.77-67.93-120.64-88-182.84-41.15-32.51,24.86-32.51,24.86-223,24.86H1108.07L1066,1241.06c-33.51-33.44-51.72-44-87.14-48.74-54.54-8.64-119.65,18.14-152.16,61.21l-22,29.68H427.57l-24.94-43.07c-47.81-80.4-161.73-119.65-249.78-86.14"/></svg>